<svg xmlns="http://www.w3.org/2000/svg" viewBox="0 0 24 24">
  <path fill="#FF6B00" d="M12 12c2.21 0 4-1.79 4-4s-1.79-4-4-4-4 1.79-4 4 1.79 4 4 4zm0-6c1.1 0 2 .9 2 2s-.9 2-2 2-2-.9-2-2 .9-2 2-2zm0 7c-2.67 0-8 1.34-8 4v2c0 .55.45 1 1 1h14c.55 0 1-.45 1-1v-2c0-2.66-5.33-4-8-4zm6 5H6v-.99c.2-.72 3.3-2.01 6-2.01s5.8 1.29 6 2v1z"/>
  <circle fill="#FF6B00" cx="19" cy="5" r="3"/>
  <path fill="#FF6B00" d="M19 8.5c-.42 0-.82-.09-1.19-.24C18.55 9.26 19 10.58 19 12c0 .59-.04 1.17-.12 1.74.68.2 1.39.32 2.12.32 2.21 0 4-1.79 4-4s-1.79-4-4-4z"/>
</svg>